<?xml version="1.0" encoding="UTF-8" standalone="no"?>
<!DOCTYPE svg PUBLIC "-//W3C//DTD SVG 1.1//EN" "http://www.w3.org/Graphics/SVG/1.1/DTD/svg11.dtd">
<svg width="100%" height="100%" viewBox="0 0 614 730" version="1.1" xmlns="http://www.w3.org/2000/svg" xmlns:xlink="http://www.w3.org/1999/xlink" xml:space="preserve" xmlns:serif="http://www.serif.com/" style="fill-rule:evenodd;clip-rule:evenodd;stroke-linejoin:round;stroke-miterlimit:2;">
    <g transform="matrix(1,0,0,1,-49.2812,-67.587)">
        <g transform="matrix(12.6476,0,0,12.6476,437.361,849.259)">
            <path d="M0,-54.654C-1.716,-54.88 -1.694,-52.187 0,-51.965C23.911,-48.823 17.1,-11.312 -3.022,-7.266C-14.808,-4.897 -24.941,-11.584 -27.732,-23.104C-30.414,-34.171 -25.203,-45.421 -16.262,-51.951C-15.442,-52.549 -16.144,-53.838 -17.071,-53.335C-40.35,-40.693 -32.435,0.226 -3.504,-4.491C20.572,-8.417 27.511,-51.034 0,-54.654" style="fill:rgb(60,60,59);fill-rule:nonzero;"/>
        </g>
        <g transform="matrix(12.6476,0,0,12.6476,384.11,208.308)">
            <path d="M0,-5.814C1.814,-7.044 4.004,-7.785 5.694,-9.148C6.448,-9.757 5.851,-11.235 4.877,-11.12C2.619,-10.853 0.529,-9.324 -1.342,-8.11C-3.569,-6.666 -5.691,-4.941 -7.382,-2.89C-7.961,-2.188 -7.832,-1.372 -7.117,-0.835C-3.903,1.581 -0.496,3.602 3.273,5.017C4.351,5.421 5.103,3.636 4.057,3.156C0.967,1.737 -1.85,-0.041 -4.521,-2.112C-3.148,-3.501 -1.636,-4.705 0,-5.814" style="fill:rgb(60,60,59);fill-rule:nonzero;"/>
        </g>
    </g>
</svg>
