<?xml version="1.0" encoding="UTF-8" standalone="no"?>
<!DOCTYPE svg PUBLIC "-//W3C//DTD SVG 1.1//EN" "http://www.w3.org/Graphics/SVG/1.1/DTD/svg11.dtd">
<svg width="100%" height="100%" viewBox="0 0 611 409" version="1.1" xmlns="http://www.w3.org/2000/svg" xmlns:xlink="http://www.w3.org/1999/xlink" xml:space="preserve" xmlns:serif="http://www.serif.com/" style="fill-rule:evenodd;clip-rule:evenodd;stroke-linejoin:round;stroke-miterlimit:2;">
    <g transform="matrix(1,0,0,1,-63.1996,-320.977)">
        <g transform="matrix(9.94007,0,0,9.94007,297.03,413.911)">
            <path d="M0,20.482C-5.316,17.161 -8.574,9.809 -6.721,3.753C-4.845,-2.38 6.168,-4.889 10.051,0.512C13.177,4.859 10.49,11.709 8.216,15.762C6.826,18.24 4.952,20.303 2.82,21.871C1.84,21.497 0.895,21.041 0,20.482M26.23,21.22C20.152,22.522 12.54,24.083 5.971,22.77C6.78,22.047 7.55,21.258 8.261,20.389C12.222,15.546 14.763,8.892 13.731,2.613C12.737,-3.438 6.393,-5.852 0.895,-4.785C-15.02,-1.695 -11.091,17.117 0.101,23.531C-6.672,26.89 -14.923,25.615 -19.111,17.341C-22.589,10.468 -23.225,-6.913 -12.747,-8.311C-12.109,-8.396 -12.07,-9.298 -12.747,-9.334C-24.837,-9.973 -24.75,9.44 -22.043,16.878C-17.866,28.356 -5.785,30.455 3.152,24.884C10.409,27.312 19.763,25.336 26.942,23.803C28.631,23.442 27.915,20.858 26.23,21.22" style="fill:rgb(60,60,59);fill-rule:nonzero;"/>
        </g>
        <g transform="matrix(9.94007,0,0,9.94007,664.152,684.279)">
            <path d="M0,-6.615C-2.689,-7.742 -5.441,-8.717 -8.203,-9.649C-10.511,-10.428 -13.202,-11.581 -15.681,-11.48C-16.421,-11.449 -16.82,-10.379 -16.08,-10.006C-14.078,-8.996 -11.773,-8.463 -9.665,-7.704C-7.378,-6.881 -5.129,-5.959 -2.89,-5.016C-4.42,-3.825 -5.954,-2.64 -7.476,-1.438C-9.025,-0.213 -10.979,1.018 -12.061,2.699C-12.729,3.738 -11.424,4.966 -10.402,4.359C-8.668,3.328 -7.165,1.712 -5.588,0.45C-3.541,-1.187 -1.468,-2.791 0.576,-4.432C1.438,-5.123 0.792,-6.283 0,-6.615" style="fill:rgb(60,60,59);fill-rule:nonzero;"/>
        </g>
    </g>
</svg>
